<svg width="1900" height="86" viewBox="0 0 1900 86" fill="none" xmlns="http://www.w3.org/2000/svg">
<rect width="1900" height="86" fill="#1E1E1E"/>
<rect width="1900" height="86" fill="white"/>
<path d="M97.0006 86.4156L0.000272993 86.4154L97.0003 -0.500858L188 -0.500443L97.0006 86.4156Z" fill="#FF0000"/>
<path d="M279 86.5762L182 86.576L279 -0.340214L370 -0.339798L279 86.5762Z" fill="#271F58"/>
<path d="M461 86.7369L364 86.7367L461 -0.179569L552 -0.179154L461 86.7369Z" fill="#FF0000"/>
<path d="M643 86.8975L546 86.8973L643 -0.0189247L733.999 -0.0185094L643 86.8975Z" fill="#271F58"/>
<path d="M825 87.0581L727.999 87.058L824.999 0.14172L915.999 0.142135L825 87.0581Z" fill="#FF0000"/>
<path d="M1007 87.2188L909.999 87.2186L1007 0.302364L1098 0.30278L1007 87.2188Z" fill="#271F58"/>
<path d="M1189 87.3794L1092 87.3793L1189 0.463009L1280 0.463424L1189 87.3794Z" fill="#FF0000"/>
<path d="M1371 87.5401L1274 87.5399L1371 0.623653L1462 0.624069L1371 87.5401Z" fill="#271F58"/>
<path d="M1553 87.7007L1456 87.7005L1553 0.784298L1644 0.784713L1553 87.7007Z" fill="#FF0000"/>
<path d="M1735 87.8614L1638 87.8612L1735 0.944943L1826 0.945358L1735 87.8614Z" fill="#271F58"/>
<path d="M1900.42 85.8581L1803.42 85.8581L1900.42 -1.05816L1900.42 85.8581Z" fill="#FF0000"/>
</svg>
